<?xml version='1.0' encoding='UTF-8' standalone='no'?>
<svg width="269px" height="157px" viewBox="0 0 269 157" version="1.1" xmlns="http://www.w3.org/2000/svg" xmlns:xlink="http://www.w3.org/1999/xlink">
    <defs></defs>
    <g id="Page-1" stroke="none" stroke-width="1" fill="none" fill-rule="evenodd">
        <g id="Artboard-1">
            <path d="M247.5,82.5 C251.5,83.5 256.169,88.519 256.5,91.5 C257.5,100.5 256.5,138.5 256.5,138.5 L268.5,145.5 L261.5,156.5 C261.5,156.5 249.5,149.5 243.5,145.5 C245,137 246.5,103.5 243.5,96.5 C240.857,90.334 235.5,86.5 229.5,82.5 C235.5,78.5 240.857,74.666 243.5,68.5 C246.5,61.5 245,28 243.5,19.5 C249.5,15.5 261.5,8.5 261.5,8.5 L268.5,19.5 L256.5,26.5 C256.5,26.5 257.5,64.5 256.5,73.5 C256.169,76.481 251.5,81.5 247.5,82.5" id="Fill-1" fill="#003E51"></path>
            <path d="M238,58 C229.549,38.985 183,24 106,24 C29,24 18,10 0,0 C14.5,32.5 28.225,47.007 62.5,49.5 C117.5,53.5 193.5,34.5 238,58" id="Fill-3" fill="#00778B"></path>
            <path d="M48,60 C65.5,85.5 79.5,94.5 108,95 C142.01,95.597 205.5,88.5 226.5,88.5 C223.5,86.5 219.5,83.5 219.5,83.5 C219.5,83.5 230.5,73.5 236.5,67.5 C193.5,58.5 142.5,68.5 114.5,68.5 C85.99,68.5 60.774,63.341 48,60" id="Fill-5" fill="#00778B"></path>
            <path d="M130,110 C146.5,123.5 159.5,134.5 182,135 C199.503,135.389 222.5,124.5 239.25,124 C239.5,116.5 239.25,109.5 239.25,104.5 C193.5,104.5 179.5,114.5 130,110" id="Fill-7" fill="#00778B"></path>
        </g>
    </g>
</svg>