<?xml version='1.0' encoding='UTF-8' standalone='no'?>
<svg width="269px" height="157px" viewBox="0 0 269 157" version="1.1" xmlns="http://www.w3.org/2000/svg" xmlns:xlink="http://www.w3.org/1999/xlink">
    <defs></defs>
    <g id="Page-1" stroke="none" stroke-width="1" fill="none" fill-rule="evenodd">
        <g id="Artboard-1">
            <path d="M21,82.5 C17,83.5 12.331,88.519 12,91.5 C11,100.5 12,138.5 12,138.5 L0,145.5 L7,156.5 C7,156.5 19,149.5 25,145.5 C23.5,137 22,103.5 25,96.5 C27.643,90.334 33,86.5 39,82.5 C33,78.5 27.643,74.666 25,68.5 C22,61.5 23.5,28 25,19.5 C19,15.5 7,8.5 7,8.5 L0,19.5 L12,26.5 C12,26.5 11,64.5 12,73.5 C12.331,76.481 17,81.5 21,82.5" id="Fill-1" fill="#003E51"></path>
            <path d="M30.5,58 C38.951,38.985 85.5,24 162.5,24 C239.5,24 250.5,10 268.5,0 C254,32.5 240.275,47.007 206,49.5 C151,53.5 75,34.5 30.5,58" id="Fill-3" fill="#00778B"></path>
            <path d="M220.5,60 C203,85.5 189,94.5 160.5,95 C126.49,95.597 63,88.5 42,88.5 C45,86.5 49,83.5 49,83.5 C49,83.5 38,73.5 32,67.5 C75,58.5 126,68.5 154,68.5 C182.51,68.5 207.726,63.341 220.5,60" id="Fill-5" fill="#00778B"></path>
            <path d="M138.5,110 C122,123.5 109,134.5 86.5,135 C68.997,135.389 46,124.5 29.25,124 C29,116.5 29.25,109.5 29.25,104.5 C75,104.5 89,114.5 138.5,110" id="Fill-7" fill="#00778B"></path>
        </g>
    </g>
</svg>