<svg id="OG_Logo" data-name="OG Logo" xmlns="http://www.w3.org/2000/svg" viewBox="0 0 800 500">
  <defs>
    <style>
      .bracket{
        fill: #003E51
      }
      .wings{
        fill: #00778B
      }
    </style>
  </defs>
  <path class="bracket" d="M286.75 254.25c-4 1-8.67 6-9 9-1 9 0 47 0 47l-12 7 7 11s12-7 18-11c-1.5-8.5-3-42 0-49 2.64-6.17 8-10 14-14-6-4-11.36-7.83-14-14-3-7-1.5-40.5 0-49-6-4-18-11-18-11l-7 11 12 7s-1 38 0 47c.33 2.98 5 8 9 9z"/>
  <path class="wings" d="M296.25 229.75c8.45-19 55-34 132-34s88-14 106-24c-14.5 32.5-28.22 47-62.5 49.5-55 4-131-15-175.5 8.5zM486.25 231.75c-17.5 25.5-31.5 34.5-60 35-34 .6-97.5-6.5-118.5-6.5 3-2 7-5 7-5s-11-10-17-16c43-9 94 1 122 1a275.12 275.12 0 0 0 66.5-8.5zM404.25 281.75c-16.5 13.5-29.5 24.5-52 25-17.5.39-40.5-10.5-57.25-11-.25-7.5 0-14.5 0-19.5 45.75 0 59.75 10 109.25 5.5z"/>
</svg>